<?xml version="1.0" encoding="UTF-8"?> <svg xmlns="http://www.w3.org/2000/svg" width="23" height="20" viewBox="0 0 23 20" fill="none"> <path d="M0.69164 2.80965L2.68533 0.72366L10.6205 9.02619H7.85732C7.07588 9.02619 6.32353 8.70228 5.76387 8.1167L0.69164 2.80965ZM12.3721 9.02619L20.3145 0.72349L22.3084 2.80965L17.2361 8.1167C16.6765 8.70228 15.9241 9.02619 15.1427 9.02619H12.3721ZM20.3067 19.2763L12.3716 10.9738H15.1427C15.9246 10.9738 16.6756 11.298 17.226 11.8811L17.2282 11.8833L22.3004 17.1903L20.3067 19.2763ZM10.6205 10.9738L2.68533 19.2763L0.69164 17.1903L5.76387 11.8833C6.32353 11.2977 7.07588 10.9738 7.85732 10.9738H10.6205Z" stroke="#48FD4A"></path> </svg> 